<svg id="图层_1" data-name="图层 1" xmlns="http://www.w3.org/2000/svg" viewBox="0 0 122 32"><defs><style>.cls-1{fill:#1a2d78;}.cls-2{fill:#0868aa;}</style></defs><title>login_logo</title><path class="cls-1" d="M54.1,15.32a2.68,2.68,0,0,1,2.1.68,3.34,3.34,0,0,1,.7,2.12,9.72,9.72,0,0,1-.15,1.81h1.31V22.2H36.57V19.93h1.56V15.32ZM36.77,1.14h4.84v-1H44.1v1h6.7V.08h2.5V1.14H58V3.33H53.3v1H50.8v-1H44.1v1H41.61v-1H36.77Zm3.76,18.79h3.12V17.28H40.53Zm5.39,0h3.15V17.28H45.92ZM50.58,9a5.67,5.67,0,0,1-2.7,2.34l-.05-2.8c.81-.38,1.46-1.57,2-3.55l2.59,0c-.25.72-.49,1.36-.73,1.94h6.05V9Zm-1.66,2.38h8.41v2H48.92ZM45.14,6.24V13.4H42.91V6.24Zm-4.09-1v9.11H38.83V5.26ZM51.33,19.93h3.08a10.27,10.27,0,0,0,.17-1.71c0-.51-.32-.82-.95-.94h-2.3Z"/><path class="cls-1" d="M64.37,6H68V4.18c-1.25,0-2.56.06-3.93.08V2c1.29,0,2.6,0,3.93-.08V.15h2.39V1.82l3.7-.15V4c-1.12,0-2.36.09-3.7.12V6h3.32V8.34H70.39v1.71h3.48v2.37h-1A18.31,18.31,0,0,0,74,17.81v4.08q-2.1-2-3-9.47h-.68V22.78H68V12.42h-.71q-.35,6.2-3.32,9.2L64,18a13.55,13.55,0,0,0,1.34-5.62H64.17V10.05H68V8.34H64.37Zm10.25,2.4H85.43v2.39H80.19L77.67,19.6a.42.42,0,0,0,.45.46H81.7c.47-.07.71-.41.71-1V14.61h2.41v5.5c-.08,1.36-.92,2.11-2.51,2.26H76.23c-.58-.05-1-.53-1.23-1.43a4.29,4.29,0,0,1,.18-1.09l2.44-9.09h-3Zm.43-7h10V3.76h-10Z"/><path class="cls-2" d="M39.54,30.87c-1.23,0-1.63-.3-1.63-1.25V26.25H36.84v3.37c0,1.59.83,2.3,2.7,2.3h3.71V30.87Z"/><path class="cls-2" d="M49.4,27.38a1.83,1.83,0,0,0-3.43,0l-2.28,4.54h1.16l.75-1.49h4.17l.74,1.49h1.16Zm-.13,2.08H46.09L47,27.65a.71.71,0,0,1,.68-.49.69.69,0,0,1,.68.49Z"/><path class="cls-2" d="M58.93,26.25v4.6c-.63,0-.8-.25-2.14-2.08-1.5-2-1.91-2.52-3.33-2.52h-.77v5.67h1.08V27.34c.58,0,.72.19,2,1.9l.13.18c1.54,2,2,2.5,3.31,2.5H60V26.25Z"/><path class="cls-2" d="M67.15,26.25l-1.85,2.1-.07.08a4.31,4.31,0,0,0-.48.61,3.77,3.77,0,0,0-.45-.57l-.1-.12-1.84-2.1H60.82l2.75,2.95c.19.2.65.67.65,1v1.72h1.07V30.2c0-.32.39-.73.6-.95l2.8-3Z"/><path class="cls-2" d="M75.23,26.25v3c0,1.38-.49,1.74-2.37,1.74s-2.38-.36-2.38-1.74v-3H69.41v3c0,2,1,2.79,3.45,2.79s3.45-.78,3.45-2.79v-3Z"/><path class="cls-2" d="M84.08,26.25v4.6c-.63,0-.8-.25-2.15-2.08-1.49-2-1.9-2.52-3.33-2.52h-.76v5.67h1.07V27.34c.59,0,.73.19,2,1.9l.14.18c1.54,2,2,2.5,3.31,2.5h.77V26.25Z"/></svg>