<svg id="图层_1" data-name="图层 1" xmlns="http://www.w3.org/2000/svg" viewBox="0 0 150 38"><defs><style>.cls-1{fill:#fff;}</style></defs><title>console_logo1</title><path class="cls-1" d="M66.8,18.12a3.15,3.15,0,0,1,2.49.81,4,4,0,0,1,.84,2.51A11.47,11.47,0,0,1,70,23.6h1.56v2.69H46V23.6h1.85V18.12ZM46.21,1.26H52V.07h3V1.26h8V0h3V1.26h5.54V3.87H65.85V5h-3V3.87h-8v1.2H52V3.87H46.21ZM50.67,23.6h3.71V20.45H50.67Zm6.4,0h3.75V20.45H57.07Zm5.54-13.06a6.62,6.62,0,0,1-3.2,2.79L59.35,10q1.44-.69,2.34-4.23l3.08,0q-.45,1.29-.87,2.31h7.19v2.42Zm-2,2.84h10v2.4h-10ZM56.15,7.33v8.5H53.5V7.33ZM51.29,6.16V17H48.65V6.16ZM63.51,23.6h3.65a11.39,11.39,0,0,0,.21-2c0-.6-.38-1-1.13-1.11H63.51Z"/><path class="cls-1" d="M79,7h4.32V4.89q-2.22.06-4.68.09V2.25l4.68-.09V.1h2.84v2c1.46,0,2.92-.1,4.4-.18V4.68c-1.34.06-2.8.11-4.4.15V7h4V9.83h-4v2h4.13v2.82h-1.2a22,22,0,0,0,1.38,6.4v4.85c-1.66-1.59-2.82-5.35-3.5-11.25h-.81V27H83.32V14.68h-.84q-.42,7.37-4,10.92l0-4.25a16,16,0,0,0,1.59-6.67H78.76V11.86h4.56v-2H79ZM91.19,9.86H104V12.7H97.81l-3,10.51q0,.51.54.54H99.6q.84-.12.84-1.2V17.28h2.87v6.53c-.1,1.61-1.09,2.51-3,2.69H93.11c-.7-.06-1.19-.63-1.47-1.7a5.16,5.16,0,0,1,.21-1.29l2.9-10.81H91.19Zm.51-8.3h11.91V4.38H91.7Z"/><path class="cls-1" d="M49.5,36.6c-1.47,0-1.94-.36-1.94-1.49v-4H46.29v4c0,1.9,1,2.74,3.21,2.74h4.4V36.6Z"/><path class="cls-1" d="M61.21,32.45a2.18,2.18,0,0,0-4.08,0l-2.7,5.4h1.38l.88-1.77h5l.89,1.77h1.37Zm-.16,2.48H57.28l1.08-2.16c.21-.42.44-.59.81-.59s.6.17.81.59Z"/><path class="cls-1" d="M72.55,31.11v5.46c-.75,0-1-.29-2.56-2.47-1.78-2.41-2.26-3-3.95-3h-.92v6.74H66.4V32.4c.7,0,.87.24,2.42,2.27l.16.21c1.82,2.4,2.32,3,3.93,3h.92V31.11Z"/><path class="cls-1" d="M82.3,31.11l-2.19,2.5L80,33.7a4.64,4.64,0,0,0-.57.72,6.42,6.42,0,0,0-.53-.68l-.12-.13-2.2-2.5H74.78l3.28,3.5c.23.24.76.8.76,1.2v2h1.27v-2c0-.38.47-.88.72-1.14l3.33-3.56Z"/><path class="cls-1" d="M91.91,31.11v3.52c0,1.64-.58,2.07-2.82,2.07s-2.82-.43-2.82-2.07V31.11H85v3.52C85,37,86.14,38,89.09,38s4.1-.93,4.1-3.32V31.11Z"/><path class="cls-1" d="M102.43,31.11v5.46c-.75,0-1-.29-2.55-2.47-1.78-2.41-2.27-3-4-3H95v6.74h1.28V32.4c.69,0,.86.24,2.41,2.26l.16.22c1.83,2.4,2.32,3,3.94,3h.91V31.11Z"/></svg>