<?xml version="1.0" encoding="utf-8"?>
<!-- Generator: Adobe Illustrator 23.0.0, SVG Export Plug-In . SVG Version: 6.00 Build 0)  -->
<svg version="1.1" id="图层_1" xmlns="http://www.w3.org/2000/svg" xmlns:xlink="http://www.w3.org/1999/xlink" x="0px" y="0px"
	 viewBox="0 0 150 38" style="enable-background:new 0 0 150 38;" xml:space="preserve">
<style type="text/css">
	.st0{fill:#FFFFFF;}
</style>
<g>
	<g>
		<path class="st0" d="M120.7,18.3c0.7-0.1,1.4,0.1,2,0.6c0.4,0.6,0.7,1.3,0.7,2c0,0.6,0,1.2-0.1,1.7h1.2v2.1h-20.1v-2.1h1.5v-4.3
			L120.7,18.3z M104.5,5.1h4.5V4.1h2.3v0.9h6.3v-1h2.3v1h4.4v2h-4.4V8h-2.3V7.1h-6.3v0.9H109V7.1h-4.5V5.1z M108,22.7h2.9v-2.5H108
			V22.7z M113,22.7h2.9v-2.5H113L113,22.7z M117.4,12.3c-0.6,1-1.5,1.8-2.5,2.2V12c0.8-0.4,1.4-1.5,1.8-3.3h2.4
			c-0.2,0.7-0.5,1.3-0.7,1.8h5.7v1.9L117.4,12.3z M115.8,14.6h7.9v1.9h-7.9L115.8,14.6z M112.3,9.9v6.7h-2.1V9.9H112.3z M108.5,8.9
			v8.5h-2.1V8.9H108.5z M118.1,22.7h2.9c0.1-0.5,0.2-1.1,0.2-1.6c0-0.5-0.3-0.8-0.9-0.9h-2.1L118.1,22.7z"/>
		<path class="st0" d="M130.3,9.6h3.4V7.9L130,8V5.8c1.2,0,2.4,0,3.7-0.1V4.2h2.2v1.6c1.1,0,2.3-0.1,3.4-0.1v2.2
			c-1.1,0.1-2.2,0.1-3.4,0.1v1.7h3.1v2.2h-3.1v1.6h3.2v2.2h-0.9c0.1,1.7,0.5,3.4,1.1,5v3.8c-1.3-1.3-2.2-4.2-2.8-8.9h-0.6v9.7h-2.2
			v-9.7H133c-0.2,3.9-1.2,6.7-3.1,8.6v-3.3c0.8-1.6,1.2-3.4,1.2-5.3h-1.1v-2.2h3.6v-1.6h-3.4L130.3,9.6z M139.9,11.8H150v2.2h-4.9
			l-2.4,8.3c0,0.2,0.1,0.4,0.3,0.4c0,0,0.1,0,0.1,0h3.3c0.4-0.1,0.7-0.4,0.7-0.9v-4.2h2.3v5.2c-0.1,1.3-0.9,2-2.4,2.1h-5.7
			c-0.6-0.1-0.9-0.5-1.2-1.3c0-0.3,0.1-0.7,0.2-1l2.3-8.5h-2.8L139.9,11.8z M140.3,5.3h9.4v2.2h-9.4V5.3z"/>
		<path class="st0" d="M106.7,32.9c-1.2,0-1.5-0.3-1.5-1.2v-3.1h-1v3.1c0,1.5,0.8,2.2,2.5,2.2h3.4v-1H106.7z"/>
		<path class="st0" d="M116,29.6c-0.3-0.9-1.3-1.3-2.2-1c-0.5,0.2-0.8,0.5-1,1l-2.1,4.3h1l0.7-1.4h3.9l0.7,1.4h1.1L116,29.6z
			 M115.8,31.6h-3l0.9-1.7c0.2-0.3,0.3-0.5,0.6-0.5c0.3,0,0.6,0.2,0.6,0.5L115.8,31.6z"/>
		<path class="st0" d="M124.9,28.6v4.3c-0.6,0-0.8-0.2-2-1.9c-1.4-1.9-1.8-2.4-3.1-2.4H119v5.3h1v-4.3c0.6,0,0.7,0.2,1.9,1.8
			l0.1,0.2c1.4,1.9,1.8,2.3,3.1,2.3h0.7v-5.3H124.9z"/>
		<path class="st0" d="M132.6,28.6l-1.7,2l-0.1,0.1c-0.2,0.2-0.3,0.4-0.5,0.6c-0.1-0.2-0.3-0.4-0.4-0.5l-0.1-0.1l-1.7-2h-1.4
			l2.6,2.8c0.2,0.2,0.6,0.6,0.6,0.9v1.6h1v-1.6c0-0.3,0.4-0.7,0.6-0.9l2.6-2.8L132.6,28.6z"/>
		<path class="st0" d="M140.1,28.6v2.8c0,1.3-0.5,1.6-2.2,1.6c-1.8,0-2.2-0.3-2.2-1.6v-2.8h-1v2.8c0,1.9,0.9,2.6,3.2,2.6
			c2.3,0,3.2-0.7,3.2-2.6v-2.8H140.1z"/>
		<path class="st0" d="M148.4,28.6v4.3c-0.6,0-0.7-0.2-2-1.9c-1.4-1.9-1.8-2.4-3.1-2.4h-0.7v5.3h1v-4.3c0.5,0,0.7,0.2,1.9,1.8
			l0.1,0.2c1.4,1.9,1.8,2.3,3.1,2.3h0.7v-5.3H148.4z"/>
	</g>
	<g>
		<path class="st0" d="M87.8,33.6c-3.5,0-9.8-1.6-15.3-3.6l2.9-2.6c8,2.9,14.2,3.6,16.7,1.9c1-0.7,1.6-1.9,1.6-3.7H97
			c0,2.9-1,5-3,6.4C92.2,33.2,90,33.7,87.8,33.6z"/>
		<path class="st0" d="M93.6,19c-7.5-4.7-25.5,4.1-27.5,5.1l0,0c-3.3,1.6-6.7,3-10.2,4.1c-6.7,2.2-11.8,2.6-14.1,1.1
			c-0.8-0.5-1.7-1.3-1.7-3.8c0-1.6,0.5-3.8,4.5-4.4c2.8-0.4,5.3-2,6.7-4.5c4.9-8.6,15.8-11.5,24.4-6.6c1.5,0.9,2.9,2,4.1,3.2
			c0.3,0.3,0.8,0.4,1.2,0.1l1.2-1.1c0.4-0.3,0.4-0.8,0.1-1.2c0,0,0,0,0,0c-8-8.6-21.5-9-30-1c-1.5,1.4-2.9,3.1-3.9,4.9
			c-0.9,1.6-2.5,2.6-4.3,2.9c-4.7,0.7-7.4,3.5-7.4,7.8c0,3.8,1.8,5.7,3.3,6.6c1.8,1,3.8,1.4,5.8,1.3c8.5,0,20.2-5.7,21.8-6.5
			c7-3.5,19.8-8,24.3-5.3c0.7,0.5,1.7,1.3,1.7,3.8c-0.1,0.9,0.6,1.7,1.6,1.8c0.9,0.1,1.7-0.6,1.8-1.6c0-0.1,0-0.2,0-0.2
			C96.9,21.8,95.1,19.9,93.6,19z"/>
		<path class="st0" d="M67.1,10.2h2.4c0.1,0,0.2,0.1,0.2,0.2v2.4c0,0.1-0.1,0.2-0.2,0.2h-2.4c-0.1,0-0.2-0.1-0.2-0.2v-2.4
			C66.9,10.2,66.9,10.2,67.1,10.2z"/>
		<path class="st0" d="M72.7,13h2.4c0.1,0,0.2,0.1,0.2,0.2v2.4c0,0.1-0.1,0.2-0.2,0.2h-2.4c-0.1,0-0.2-0.1-0.2-0.2v-2.4
			C72.5,13.1,72.6,13,72.7,13z"/>
		<path class="st0" d="M61.4,15.8h2.4c0.1,0,0.2,0.1,0.2,0.2v2.4c0,0.1-0.1,0.2-0.2,0.2h-2.4c-0.1,0-0.2-0.1-0.2-0.2V16
			C61.2,15.9,61.3,15.8,61.4,15.8z"/>
		<rect x="72.5" y="18.7" class="st0" width="2.8" height="11.4"/>
		<rect x="66.9" y="15.8" class="st0" width="2.8" height="14.2"/>
		<rect x="61.2" y="21.5" class="st0" width="2.8" height="11.4"/>
	</g>
</g>
</svg>
